<?xml version="1.0" encoding="UTF-8"?>
<svg id="_レイヤー_1" data-name="レイヤー 1" xmlns="http://www.w3.org/2000/svg" viewBox="0 0 98 23">
  <defs>
    <style>
      .cls-1 {
        fill: #1a1a1a;
        stroke-width: 0px;
      }
    </style>
  </defs>
  <path class="cls-1" d="m1.71,5.3C.75,5.3-.03,4.52-.03,3.56s.78-1.74,1.74-1.74,1.68.78,1.68,1.74-.72,1.74-1.68,1.74ZM.51,22.7v-14.19l2.34-.12v14.31H.51Z"/>
  <path class="cls-1" d="m16.62,22.58l-2.88.48c-2.16,0-4.08-.69-4.08-3.84v-8.67h-2.82v-1.92l2.82-.24.45-4.14h1.89v4.38h4.08v1.92h-4.08v7.98c0,2.04.84,2.61,2.4,2.61l2.22-.33v1.77Z"/>
  <path class="cls-1" d="m24.09,23.06c-1.53,0-3.24-.54-4.53-1.41v-2.19c1.59,1.14,3.45,1.62,4.35,1.62,1.5,0,2.91-.69,2.91-2.01,0-1.44-1.62-1.89-2.67-2.4-1.59-.78-4.35-1.92-4.35-4.38,0-2.76,2.61-3.9,4.98-3.9,1.26,0,2.58.36,3.54.93v1.92c-1.17-.6-2.58-.93-3.54-.93-1.65,0-2.61.84-2.61,1.92,0,1.2,1.5,1.86,2.49,2.28,2.1.93,4.47,1.95,4.47,4.41,0,2.97-2.49,4.14-5.04,4.14Z"/>
  <path class="cls-1" d="m45.06,22.7h-2.13l-.24-2.85-2.04,1.77c-.93.81-2.19,1.44-3.51,1.44-1.92,0-3.93-1.23-3.93-3.9v-10.65l2.34-.12v9.36c0,2.31.48,3.3,2.13,3.3,1.02,0,1.83-.72,2.52-1.35l2.52-2.22v-8.97l2.34-.12v14.31Z"/>
  <path class="cls-1" d="m50.76,23.06c-1.05,0-1.92-.9-1.92-2.01s.87-2.04,1.92-2.04,1.92.93,1.92,2.04-.87,2.01-1.92,2.01Z"/>
  <path class="cls-1" d="m69.48,22.79l-1.68.27c-.93,0-2.1-.42-2.4-1.71l-.06-.39h-.06c-.9,1.26-2.43,2.1-4.02,2.1-3.93,0-5.85-3.24-5.85-6.9,0-3.84,2.28-7.77,6.54-7.77,1.5,0,2.73.66,3.18,1.08V.38l2.34-.12v18.09c0,2.16.06,2.91,1.02,2.91l.99-.12v1.65Zm-4.35-11.34c-.75-.75-2.04-1.17-2.82-1.17-2.91,0-4.47,2.82-4.47,5.88,0,2.58,1.2,4.98,3.72,4.98,1.5,0,3.57-1.35,3.57-4.5v-5.19Z"/>
  <path class="cls-1" d="m82.47,21.2c-1.53,1.47-3.42,1.86-4.89,1.86-4.8,0-7.05-3.63-7.05-7.26s2.34-7.41,6.54-7.41c3.48,0,5.25,2.25,5.25,4.8,0,1.08-.3,2.19-.93,3.24h-8.49c.18,3.48,2.88,4.71,4.89,4.71,1.23,0,2.49-.48,3.72-1.38l.96,1.44Zm-2.37-7.98c0-1.56-1.08-2.94-2.94-2.94-2.13,0-3.81,1.83-4.17,4.23h6.87c.15-.39.24-.9.24-1.29Z"/>
  <path class="cls-1" d="m97.74,8.63l-5.58,14.07h-1.5l-5.58-14.07h2.43l2.79,6.96,1.11,3.27h.06l1.11-3.27,2.79-6.96h2.37Z"/>
</svg>